<svg xmlns="http://www.w3.org/2000/svg" data-name="Layer 1" viewBox="0 0 512 640" x="0px" y="0px"><title>magic wand</title><rect x="319.505" y="179.718" width="29.738" height="29.737" transform="translate(-39.657 293.434) rotate(-45)"/><rect x="40.615" y="312.527" width="321.901" height="29.738" transform="translate(-172.466 238.42) rotate(-45)"/><path d="M424.271,295.33a41.017,41.017,0,0,1-30.709-41.379,6,6,0,0,0-11.8-1.747,41.013,41.013,0,0,1-41.379,30.709,6,6,0,0,0-1.747,11.8,41.017,41.017,0,0,1,30.709,41.38,6,6,0,0,0,11.8,1.746,41,41,0,0,1,41.38-30.709,6,6,0,0,0,1.746-11.8Z"/><path d="M425.354,77.756a29.253,29.253,0,0,1-36.659-2.63,6,6,0,0,0-9.015,7.809,29.254,29.254,0,0,1-2.63,36.658,6,6,0,0,0,7.808,9.015,29.258,29.258,0,0,1,36.659,2.63,6,6,0,0,0,9.015-7.808,29.256,29.256,0,0,1,2.63-36.659,6,6,0,0,0-7.808-9.015Z"/><path d="M182.869,100.5a56.19,56.19,0,0,1,26.212,65.544,6,6,0,0,0,10.962,4.7,56.187,56.187,0,0,1,65.544-26.212,6,6,0,0,0,4.7-10.962,56.191,56.191,0,0,1-26.213-65.545,6,6,0,0,0-10.962-4.7,56.188,56.188,0,0,1-65.543,26.212,6,6,0,0,0-4.7,10.962Z"/><text x="0" y="527" fill="#000000" font-size="5px" font-weight="bold" font-family="'Helvetica Neue', Helvetica, Arial-Unicode, Arial, Sans-serif">Created by Icongeek26</text><text x="0" y="532" fill="#000000" font-size="5px" font-weight="bold" font-family="'Helvetica Neue', Helvetica, Arial-Unicode, Arial, Sans-serif">from the Noun Project</text></svg>